<?xml version="1.0" encoding="UTF-8" standalone="no"?>
<!-- Created with Inkscape (http://www.inkscape.org/) -->

<svg
   version="1.1"
   id="svg1"
   width="930.263"
   height="929.33337"
   viewBox="0 0 930.263 929.33338"
   xmlns="http://www.w3.org/2000/svg"
   xmlns:svg="http://www.w3.org/2000/svg">
  <defs
     id="defs1" />
  <g
     id="g1"
     transform="translate(-8.1804828,-9.3333335)">
    <path
       style="fill:#000000"
       d="m 904.00002,224.11297 c -18.7,-7.96783 -60.4,-25.71351 -92.66667,-39.43484 -32.26667,-13.72133 -90.76667,-38.63089 -130,-55.35458 C 503.33366,53.449029 474.6897,41.333334 473.30666,41.333334 c -1.33716,0 -46.10298,18.88625 -157.97332,66.647356 -40.245,17.18191 -119.80617,51.07955 -239.157506,101.89487 -35.46996,15.10178 -65.339002,27.45778 -66.375649,27.45778 -1.5378584,0 -1.8156637,-2.8602 -1.5091652,-15.53793 L 8.6666669,206.25748 47.333334,189.78386 c 48.434501,-20.63513 66.437006,-28.29202 128.000006,-54.44145 27.13333,-11.52512 67.33333,-28.62459 89.33333,-37.998803 63.72194,-27.151971 99.82582,-42.501448 142.66667,-60.654392 22,-9.322055 45.32577,-19.290696 51.83504,-22.152536 6.50926,-2.86184 12.79278,-5.2033455 13.96335,-5.2033455 1.17058,0 27.34482,10.7463235 58.16497,23.8807185 30.82016,13.134396 94.43665,40.199058 141.36998,60.143695 46.93334,19.944633 95.53334,40.633643 108,45.975563 12.46667,5.34192 38.56667,16.44297 58,24.66898 75.75448,32.06643 98.03938,41.64731 99.04424,42.58177 0.57434,0.5341 0.87434,7.95616 0.66667,16.49348 l -0.37757,15.52239 z"
       id="path8" />
    <path
       style="fill:#7cdc00;fill-opacity:1"
       d="m 647.56301,613.78523 c -0.49298,-0.49298 -0.89633,-99.79633 -0.89633,-220.67411 0,-166.44953 0.37712,-219.77778 1.55418,-219.77778 0.8548,0 19.0048,7.43938 40.33333,16.53196 21.32854,9.09257 71.47916,30.46061 111.44583,47.48453 39.96666,17.02392 73.41892,31.55988 74.33835,32.30213 1.32755,1.07174 1.60203,36.65427 1.33333,172.84881 l -0.33835,171.49924 -113.437,0.34078 c -62.39036,0.18742 -113.84036,-0.0626 -114.33334,-0.55556 z m 198.77617,-177.32285 0.33917,-146.87096 -15.6725,-6.64984 c -8.61988,-3.65742 -46.18537,-19.61548 -83.47888,-35.46238 -37.29351,-15.84689 -68.64351,-28.81253 -69.66667,-28.81253 -1.58244,0 -1.86029,27.28395 -1.86029,182.67654 v 182.67654 l 85.00001,-0.3432 85,-0.3432 z"
       id="path7" />
    <path
       style="fill:#7cdc00;fill-opacity:1"
       d="m 339.29991,613.04537 c -0.35818,-0.94161 -0.49718,-100.41203 -0.3089,-221.04536 l 0.34233,-219.33334 h 14.66667 14.66666 l 0.66667,130.44096 0.66667,130.44095 2.80658,-3.10762 c 1.54362,-1.70919 8.78907,-11.20762 16.10101,-21.10762 7.31193,-9.9 29.7969,-40.2 49.9666,-67.33333 39.5864,-53.25371 89.43603,-120.54222 111.83313,-150.95567 l 13.95935,-18.95567 19,-0.0443 c 10.45,-0.0244 18.984,0.40566 18.96445,0.95566 -0.0196,0.55 -15.03913,21.1 -33.37684,45.66667 -32.14145,43.05928 -71.5508,96.11456 -130.58412,175.80036 -15.40192,20.79019 -28.00349,38.27586 -28.00349,38.85704 0,0.82366 116.44321,107.31019 184.9648,169.14905 6.03065,5.44249 10.64524,10.41251 10.25465,11.0445 -0.39059,0.63198 -10.45188,1.14906 -22.35843,1.14906 h -21.64827 l -19.27304,-17.52583 c -10.60018,-9.6392 -21.97305,-20.01339 -25.27305,-23.05376 -3.3,-3.04036 -27,-24.68174 -52.66666,-48.09195 -25.66667,-23.41022 -49.36667,-45.04671 -52.66667,-48.08111 -30.08987,-27.66803 -40.15314,-36.58069 -41.30318,-36.58069 -0.88579,0 -1.461,29.43538 -1.6871,86.33334 l -0.34306,86.33333 -14.35777,0.37869 c -10.74299,0.28335 -14.52173,-0.0523 -15.00899,-1.33333 z"
       id="path6" />
    <path
       style="fill:#7cdc00;fill-opacity:1"
       d="M 66.229666,613.78523 C 65.736684,613.29225 65.333335,535.69955 65.333335,441.357 V 269.82509 l 14.333333,-6.1782 c 23.819782,-10.26721 85.837762,-36.70822 143.000002,-60.96723 29.7,-12.60434 57.22251,-24.36359 61.16113,-26.13166 11.28453,-5.06569 10.97685,-5.42609 10.54785,12.35546 l -0.37564,15.57012 -11.33334,4.97001 c -6.23333,2.73351 -31.43333,13.48955 -56,23.90232 -24.56667,10.41276 -64.16667,27.2568 -88,37.43119 l -43.333335,18.49889 -0.346041,65.6088 c -0.272165,51.60192 0.01249,65.83641 1.333333,66.67493 0.923656,0.58636 38.129373,1.07531 82.679373,1.08654 l 81.00001,0.0204 v 14.65649 14.6565 l -82.33334,0.3435 -82.333335,0.34351 -0.345892,65.65817 -0.345893,65.65818 99.67923,0.34182 99.67923,0.34183 v 14.66667 14.66666 l -113.43701,0.3408 c -62.39035,0.18742 -113.840353,-0.0626 -114.333334,-0.55556 z"
       id="path5" />
    <path
       style="fill:#000000"
       d="m 714.99361,805.00002 0.33974,-133.66667 78.33333,-0.34399 78.33334,-0.34399 v 14.01065 14.01066 h -64 -64 v 45.33334 45.33333 h 54 54 v 13.33333 13.33334 h -54 -54 v 48 48 h 64.66666 64.66667 v 13.33333 13.33334 h -79.33974 -79.33974 z"
       id="path4" />
    <path
       style="fill:#000000"
       d="m 561.33335,818.66668 v -120 h -38.66667 -38.66667 v -14 -14 h 92 92 v 14 14 h -38 -38 v 120 120.00001 h -15.33333 -15.33333 z"
       id="path3" />
    <path
       style="fill:#000000"
       d="m 276.00001,937.80987 c 0,-0.51928 19.82585,-60.83893 44.05745,-134.04367 l 44.05746,-133.09952 h 15.30446 c 14.61251,0 15.36091,0.13564 16.55287,3 2.37879,5.71642 86.69443,261.96672 86.69443,263.47989 0,1.04793 -4.66356,1.52012 -15.0136,1.52012 h -15.01359 l -8.72369,-28.33334 -8.72369,-28.33333 h -55.89305 -55.89304 l -8.76818,28 -8.76817,28 -14.93483,0.377 c -8.21416,0.20735 -14.93483,-0.0479 -14.93483,-0.56715 z m 148.98213,-85.47652 c -0.92218,-3.24932 -37.67283,-118.6593 -41.84814,-131.4179 -1.87512,-5.72984 -3.61465,-10.21255 -3.86563,-9.96158 -0.55578,0.55578 -45.93503,141.70838 -45.93503,142.88136 0,0.4573 20.76998,0.83146 46.15551,0.83146 43.32101,0 46.11484,-0.1433 45.49329,-2.33334 z"
       id="path2" />
    <path
       style="fill:#000000"
       d="m 66.666668,804.66668 v -134 h 14.666667 14.666667 v 58.11111 c 0,31.96112 0.509517,57.91112 1.132259,57.66667 0.622742,-0.24444 22.969209,-26.39444 49.658809,-58.11111 l 48.52656,-57.66667 h 16.92916 c 9.31104,0 17.27231,0.55521 17.6917,1.2338 0.41939,0.67858 -23.5452,29.53652 -53.25465,64.12873 -29.70944,34.59222 -54.01717,63.33476 -54.01717,63.87232 0,0.53756 3.20655,4.52963 7.12567,8.87127 26.78563,29.67339 112.87433,127.90753 112.87433,128.7987 0,0.60235 -8.55,1.07028 -19,1.03983 l -19,-0.0554 -28.07792,-32.27797 c -15.44286,-17.75289 -39.74286,-45.66871 -54,-62.03517 l -25.922081,-29.75718 -0.346518,62.09052 -0.346518,62.09052 H 81.320151 66.666668 Z"
       id="path1" />
  </g>
</svg>
